<svg version="1.1" xmlns="http://www.w3.org/2000/svg" xmlns:xlink="http://www.w3.org/1999/xlink" width="32px" height="32px" viewBox="0,0,256,256"><g fill="#d0d0db" fill-rule="nonzero" stroke="none" stroke-width="1" stroke-linecap="butt" stroke-linejoin="miter" stroke-miterlimit="10" stroke-dasharray="" stroke-dashoffset="0" font-family="none" font-weight="none" font-size="none" text-anchor="none" style="mix-blend-mode: normal"><g transform="translate(0.01873,-0.29605) scale(8,8)"><g id="search"><path d="M29.71,28.29l-6.5,-6.5h-0.07c4.16295,-4.90847 3.7123,-12.22707 -1.02141,-16.58771c-4.73371,-4.36064 -12.06464,-4.21034 -16.61564,0.34066c-4.551,4.551 -4.7013,11.88193 -0.34066,16.61564c4.36064,4.73371 11.67925,5.18437 16.58771,1.02141c0,0 0,0.05 0,0.07l6.5,6.5c0.18777,0.18931 0.44336,0.2958 0.71,0.2958c0.26664,0 0.52223,-0.10649 0.71,-0.2958c0.20723,-0.18348 0.32915,-0.44464 0.33673,-0.72132c0.00758,-0.27668 -0.09985,-0.54413 -0.29673,-0.73868zM14,24c-5.52285,0 -10,-4.47715 -10,-10c0,-5.52285 4.47715,-10 10,-10c5.52285,0 10,4.47715 10,10c0,5.52285 -4.47715,10 -10,10z"></path></g></g></g></svg>